<mxfile host="app.diagrams.net" agent="Mozilla/5.0 (Windows NT 10.0; Win64; x64) AppleWebKit/537.36 (KHTML, like Gecko) Chrome/134.0.0.0 Safari/537.36" version="26.1.3">
  <diagram id="C5RBs43oDa-KdzZeNtuy" name="Page-1">
    <mxGraphModel grid="1" page="1" gridSize="10" guides="1" tooltips="1" connect="1" arrows="1" fold="1" pageScale="1" pageWidth="827" pageHeight="1169" math="0" shadow="0">
      <root>
        <mxCell id="WIyWlLk6GJQsqaUBKTNV-0" />
        <mxCell id="WIyWlLk6GJQsqaUBKTNV-1" parent="WIyWlLk6GJQsqaUBKTNV-0" />
        <mxCell id="SvF0t54kOAKNc78qu_br-9" value="" style="edgeStyle=none;curved=1;rounded=0;orthogonalLoop=1;jettySize=auto;html=1;fontSize=12;startSize=8;endSize=8;" edge="1" parent="WIyWlLk6GJQsqaUBKTNV-1">
          <mxGeometry relative="1" as="geometry">
            <mxPoint x="299.5" y="250" as="sourcePoint" />
            <mxPoint x="299.5" y="300" as="targetPoint" />
          </mxGeometry>
        </mxCell>
        <mxCell id="SvF0t54kOAKNc78qu_br-0" value="" style="ellipse;html=1;shape=startState;fillColor=#000000;strokeColor=#ff0000;" vertex="1" parent="WIyWlLk6GJQsqaUBKTNV-1">
          <mxGeometry x="285" y="220" width="30" height="30" as="geometry" />
        </mxCell>
        <mxCell id="SvF0t54kOAKNc78qu_br-10" value="chooses a default storyline" style="rounded=1;whiteSpace=wrap;html=1;arcSize=40;fontColor=#000000;fillColor=#ffffc0;strokeColor=#ff0000;" vertex="1" parent="WIyWlLk6GJQsqaUBKTNV-1">
          <mxGeometry x="380" y="300" width="120" height="40" as="geometry" />
        </mxCell>
        <mxCell id="SvF0t54kOAKNc78qu_br-12" value="invitation?" style="rhombus;whiteSpace=wrap;html=1;fontColor=#000000;fillColor=#ffffc0;strokeColor=#ff0000;" vertex="1" parent="WIyWlLk6GJQsqaUBKTNV-1">
          <mxGeometry x="260" y="300" width="80" height="40" as="geometry" />
        </mxCell>
        <mxCell id="SvF0t54kOAKNc78qu_br-13" value="no" style="edgeStyle=orthogonalEdgeStyle;html=1;align=left;verticalAlign=bottom;endArrow=open;endSize=8;strokeColor=#ff0000;rounded=0;fontSize=12;curved=1;" edge="1" parent="WIyWlLk6GJQsqaUBKTNV-1" source="SvF0t54kOAKNc78qu_br-12">
          <mxGeometry x="-1" relative="1" as="geometry">
            <mxPoint x="380" y="320" as="targetPoint" />
          </mxGeometry>
        </mxCell>
        <mxCell id="SvF0t54kOAKNc78qu_br-14" value="yes" style="edgeStyle=orthogonalEdgeStyle;html=1;align=left;verticalAlign=top;endArrow=open;endSize=8;strokeColor=#ff0000;rounded=0;fontSize=12;curved=1;" edge="1" parent="WIyWlLk6GJQsqaUBKTNV-1" source="SvF0t54kOAKNc78qu_br-12">
          <mxGeometry x="-1" relative="1" as="geometry">
            <mxPoint x="300" y="380" as="targetPoint" />
          </mxGeometry>
        </mxCell>
        <mxCell id="SvF0t54kOAKNc78qu_br-25" style="edgeStyle=none;curved=1;rounded=0;orthogonalLoop=1;jettySize=auto;html=1;exitX=0.5;exitY=1;exitDx=0;exitDy=0;entryX=0.5;entryY=1;entryDx=0;entryDy=0;fontSize=12;startSize=8;endSize=8;" edge="1" parent="WIyWlLk6GJQsqaUBKTNV-1" source="SvF0t54kOAKNc78qu_br-15" target="SvF0t54kOAKNc78qu_br-18">
          <mxGeometry relative="1" as="geometry" />
        </mxCell>
        <mxCell id="SvF0t54kOAKNc78qu_br-15" value="view 1st panel of the story" style="rounded=1;whiteSpace=wrap;html=1;arcSize=40;fontColor=#000000;fillColor=#ffffc0;strokeColor=#ff0000;" vertex="1" parent="WIyWlLk6GJQsqaUBKTNV-1">
          <mxGeometry x="540" y="300" width="120" height="40" as="geometry" />
        </mxCell>
        <mxCell id="SvF0t54kOAKNc78qu_br-18" value="" style="ellipse;html=1;shape=endState;fillColor=#000000;strokeColor=#ff0000;rotation=-180;" vertex="1" parent="WIyWlLk6GJQsqaUBKTNV-1">
          <mxGeometry x="585" y="385" width="30" height="30" as="geometry" />
        </mxCell>
        <mxCell id="SvF0t54kOAKNc78qu_br-21" value="" style="edgeStyle=orthogonalEdgeStyle;html=1;verticalAlign=bottom;endArrow=open;endSize=8;strokeColor=#ff0000;rounded=0;fontSize=12;curved=1;exitX=1;exitY=0.5;exitDx=0;exitDy=0;" edge="1" parent="WIyWlLk6GJQsqaUBKTNV-1" source="SvF0t54kOAKNc78qu_br-10">
          <mxGeometry relative="1" as="geometry">
            <mxPoint x="540" y="320" as="targetPoint" />
            <mxPoint x="560" y="319.5" as="sourcePoint" />
          </mxGeometry>
        </mxCell>
        <mxCell id="mMPD_dNbgYUhDpCbO_00-7" value="Pop up Window appears" style="rounded=1;whiteSpace=wrap;html=1;arcSize=40;fontColor=#000000;fillColor=#ffffc0;strokeColor=#ff0000;" vertex="1" parent="WIyWlLk6GJQsqaUBKTNV-1">
          <mxGeometry x="240" y="380" width="120" height="40" as="geometry" />
        </mxCell>
        <mxCell id="mMPD_dNbgYUhDpCbO_00-8" value="" style="edgeStyle=orthogonalEdgeStyle;html=1;verticalAlign=bottom;endArrow=open;endSize=8;strokeColor=#ff0000;rounded=0;fontSize=12;curved=1;" edge="1" parent="WIyWlLk6GJQsqaUBKTNV-1" source="mMPD_dNbgYUhDpCbO_00-7">
          <mxGeometry relative="1" as="geometry">
            <mxPoint x="300" y="485" as="targetPoint" />
          </mxGeometry>
        </mxCell>
        <mxCell id="mMPD_dNbgYUhDpCbO_00-9" value="accept?&amp;nbsp;" style="rhombus;whiteSpace=wrap;html=1;fontColor=#000000;fillColor=#ffffc0;strokeColor=#ff0000;" vertex="1" parent="WIyWlLk6GJQsqaUBKTNV-1">
          <mxGeometry x="260" y="485" width="80" height="40" as="geometry" />
        </mxCell>
        <mxCell id="mMPD_dNbgYUhDpCbO_00-10" value="no" style="edgeStyle=orthogonalEdgeStyle;html=1;align=left;verticalAlign=bottom;endArrow=open;endSize=8;strokeColor=#ff0000;rounded=0;fontSize=12;curved=1;exitX=0;exitY=0.5;exitDx=0;exitDy=0;" edge="1" parent="WIyWlLk6GJQsqaUBKTNV-1" source="mMPD_dNbgYUhDpCbO_00-9">
          <mxGeometry x="-0.9031" y="-5" relative="1" as="geometry">
            <mxPoint x="160" y="505" as="targetPoint" />
            <Array as="points">
              <mxPoint x="160" y="505" />
            </Array>
            <mxPoint x="201" y="550" as="sourcePoint" />
            <mxPoint as="offset" />
          </mxGeometry>
        </mxCell>
        <mxCell id="mMPD_dNbgYUhDpCbO_00-11" value="yes" style="edgeStyle=orthogonalEdgeStyle;html=1;align=left;verticalAlign=top;endArrow=open;endSize=8;strokeColor=#ff0000;rounded=0;fontSize=12;curved=1;exitX=1;exitY=0.5;exitDx=0;exitDy=0;" edge="1" parent="WIyWlLk6GJQsqaUBKTNV-1" source="mMPD_dNbgYUhDpCbO_00-9">
          <mxGeometry x="-1" relative="1" as="geometry">
            <mxPoint x="390" y="505" as="targetPoint" />
            <mxPoint x="440" y="580" as="sourcePoint" />
          </mxGeometry>
        </mxCell>
        <mxCell id="mMPD_dNbgYUhDpCbO_00-17" value="Pop up Window disappears" style="rounded=1;whiteSpace=wrap;html=1;arcSize=40;fontColor=#000000;fillColor=#ffffc0;strokeColor=#ff0000;" vertex="1" parent="WIyWlLk6GJQsqaUBKTNV-1">
          <mxGeometry x="390" y="485" width="120" height="40" as="geometry" />
        </mxCell>
        <mxCell id="mMPD_dNbgYUhDpCbO_00-18" value="" style="edgeStyle=orthogonalEdgeStyle;html=1;verticalAlign=bottom;endArrow=open;endSize=8;strokeColor=#ff0000;rounded=0;fontSize=12;curved=1;exitX=1;exitY=0.5;exitDx=0;exitDy=0;" edge="1" parent="WIyWlLk6GJQsqaUBKTNV-1" source="mMPD_dNbgYUhDpCbO_00-17">
          <mxGeometry relative="1" as="geometry">
            <mxPoint x="540" y="320" as="targetPoint" />
          </mxGeometry>
        </mxCell>
        <mxCell id="mMPD_dNbgYUhDpCbO_00-20" value="Pop up Window disappears" style="rounded=1;whiteSpace=wrap;html=1;arcSize=40;fontColor=#000000;fillColor=#ffffc0;strokeColor=#ff0000;" vertex="1" parent="WIyWlLk6GJQsqaUBKTNV-1">
          <mxGeometry x="40" y="485" width="120" height="40" as="geometry" />
        </mxCell>
        <mxCell id="mMPD_dNbgYUhDpCbO_00-21" value="" style="edgeStyle=orthogonalEdgeStyle;html=1;align=left;verticalAlign=bottom;endArrow=open;endSize=8;strokeColor=#ff0000;rounded=0;fontSize=12;curved=1;exitX=0;exitY=0.5;exitDx=0;exitDy=0;" edge="1" parent="WIyWlLk6GJQsqaUBKTNV-1" source="mMPD_dNbgYUhDpCbO_00-20">
          <mxGeometry x="-0.8641" y="-20" relative="1" as="geometry">
            <mxPoint x="290" y="240" as="targetPoint" />
            <Array as="points">
              <mxPoint x="20" y="505" />
              <mxPoint x="20" y="240" />
              <mxPoint x="285" y="240" />
            </Array>
            <mxPoint x="270" y="515" as="sourcePoint" />
            <mxPoint as="offset" />
          </mxGeometry>
        </mxCell>
      </root>
    </mxGraphModel>
  </diagram>
</mxfile>
